<svg width="16" height="16" viewBox="0 0 16 16" fill="none" xmlns="http://www.w3.org/2000/svg">
<path d="M6.66586 13.1667H9.33253C9.33253 13.8333 8.85453 14.5 7.9992 14.5C7.14386 14.5 6.66586 13.8333 6.66586 13.1667ZM13.4939 10.3499L12.7565 9.1193C12.4772 8.6533 12.3299 8.11996 12.3299 7.57796V5.82666C12.3299 3.44066 10.3872 1.5 7.99987 1.5C5.61254 1.5 3.66986 3.44066 3.66986 5.82666V7.57796C3.66986 8.11996 3.52253 8.6533 3.2432 9.1193L2.50586 10.3499C2.28053 10.7246 2.2752 11.1766 2.4912 11.5579C2.7072 11.9393 3.09786 12.1667 3.53586 12.1667H12.4652C12.9039 12.1667 13.2945 11.9386 13.5105 11.5579C13.7245 11.1773 13.7192 10.7253 13.4939 10.3499Z" fill="#6F6F6F"/>
</svg>
