<svg width="9" height="10" viewBox="0 0 9 10" fill="none" xmlns="http://www.w3.org/2000/svg">
<path d="M0.299008 8.3975C0.200013 8.29851 0.145565 8.18466 0.135666 8.05597C0.145565 7.92727 0.200012 7.81343 0.299007 7.71443L3.38765 4.62579L0.343554 1.5817C0.244559 1.4827 0.190112 1.36886 0.180213 1.24017C0.190112 1.11147 0.24456 0.997627 0.343555 0.898633L0.818731 0.423457C0.917726 0.324462 1.02662 0.274965 1.14541 0.274965C1.28401 0.274965 1.4028 0.324462 1.5018 0.423457L4.54589 3.46755L7.54544 0.468004C7.64443 0.36901 7.75333 0.319512 7.87212 0.319513C8.01071 0.319512 8.12951 0.36901 8.2285 0.468005L8.74823 0.987728C8.84722 1.08672 8.89177 1.20057 8.88187 1.32926C8.89177 1.45795 8.84722 1.5718 8.74823 1.67079L5.74868 4.67034L8.80762 7.72928C8.90662 7.82828 8.95117 7.94212 8.94127 8.07082C8.95117 8.19951 8.90662 8.31335 8.80762 8.41235L8.33245 8.88753C8.23345 8.98652 8.11466 9.03602 7.97607 9.03602C7.85727 9.03602 7.74838 8.98652 7.64938 8.88753L4.59044 5.82858L1.5018 8.91722C1.4028 9.01622 1.28401 9.06572 1.14541 9.06572C1.02662 9.06572 0.917726 9.01622 0.818731 8.91722L0.299008 8.3975Z" fill="black"/>
</svg>
