<svg width="16" height="16" viewBox="0 0 16 16" fill="none" xmlns="http://www.w3.org/2000/svg">
<path fill-rule="evenodd" clip-rule="evenodd" d="M7.99736 0C6.09813 0.00101608 4.26118 0.694626 2.81497 1.9568C1.36876 3.21898 0.407601 4.96742 0.103354 6.88949C-0.200892 8.81155 0.171611 10.7819 1.15426 12.4482C2.13692 14.1145 3.66563 15.3682 5.46707 15.9849C5.8645 16.061 6.01419 15.807 6.01419 15.5911C6.01419 15.3751 6.00624 14.749 6.00359 14.0644C3.77801 14.5602 3.30772 13.096 3.30772 13.096C2.94474 12.1452 2.42014 11.8953 2.42014 11.8953C1.69417 11.3873 2.47446 11.3969 2.47446 11.3969C3.27858 11.4553 3.70118 12.243 3.70118 12.243C4.4139 13.4967 5.57305 13.134 6.02877 12.9221C6.1003 12.3911 6.30829 12.0298 6.53747 11.8247C4.75965 11.6182 2.89175 10.9147 2.89175 7.77176C2.88073 6.95666 3.17575 6.1684 3.71575 5.57008C3.63362 5.36363 3.35939 4.52968 3.79391 3.39692C3.79391 3.39692 4.46556 3.17689 5.99433 4.23766C7.30561 3.87001 8.6891 3.87001 10.0004 4.23766C11.5278 3.17689 12.1981 3.39692 12.1981 3.39692C12.634 4.52696 12.3598 5.36091 12.2776 5.57008C12.8193 6.1685 13.115 6.95813 13.103 7.77447C13.103 10.9242 11.2311 11.6182 9.45061 11.8206C9.73675 12.076 9.99243 12.5744 9.99243 13.3405C9.99243 14.4379 9.98316 15.3208 9.98316 15.5911C9.98316 15.8097 10.1276 16.0651 10.5329 15.9849C12.3346 15.3681 13.8634 14.1142 14.8461 12.4476C15.8287 10.781 16.201 8.81039 15.8964 6.88815C15.5918 4.9659 14.6302 3.21745 13.1835 1.95549C11.7368 0.693524 9.89945 0.000372037 8 0H7.99736Z" fill="#B6B6B6"/>
</svg>
