<svg width="17" height="17" viewBox="0 0 17 17" fill="none" xmlns="http://www.w3.org/2000/svg">
<path d="M9.20833 14.875C9.20833 15.2667 8.891 15.5833 8.5 15.5833H5.66667C3.71379 15.5833 2.125 13.9945 2.125 12.0416V4.95829C2.125 3.00542 3.71379 1.41663 5.66667 1.41663H8.5C8.891 1.41663 9.20833 1.73325 9.20833 2.12496C9.20833 2.51667 8.891 2.83329 8.5 2.83329H5.66667C4.49508 2.83329 3.54167 3.78671 3.54167 4.95829V12.0416C3.54167 13.2132 4.49508 14.1666 5.66667 14.1666H8.5C8.89171 14.1666 9.20833 14.4833 9.20833 14.875ZM14.6675 7.99915L11.8341 5.16581C11.5572 4.88885 11.1095 4.88885 10.8325 5.16581C10.5556 5.44277 10.5556 5.89048 10.8325 6.16744L12.4567 7.79163H7.08333C6.69233 7.79163 6.375 8.10825 6.375 8.49996C6.375 8.89167 6.69233 9.20829 7.08333 9.20829H12.4567L10.8325 10.8325C10.5556 11.1094 10.5556 11.5571 10.8325 11.8341C10.9707 11.9722 11.152 12.0416 11.3333 12.0416C11.5147 12.0416 11.696 11.9722 11.8341 11.8341L14.6675 9.00077C14.9444 8.72382 14.9444 8.2754 14.6675 7.99915Z" fill="black"/>
</svg>
