<svg width="12" height="12" viewBox="0 0 12 12" fill="none" xmlns="http://www.w3.org/2000/svg">
<path d="M10.8535 10.1465L8.584 7.87695C9.1555 7.15295 9.5 6.2415 9.5 5.25C9.5 2.9065 7.5935 1 5.25 1C2.9065 1 1 2.9065 1 5.25C1 7.5935 2.9065 9.5 5.25 9.5C6.242 9.5 7.153 9.15598 7.877 8.58398L10.1465 10.8535C10.244 10.951 10.372 11 10.5 11C10.628 11 10.756 10.951 10.8535 10.8535C11.049 10.658 11.049 10.342 10.8535 10.1465ZM2 5.25C2 3.458 3.458 2 5.25 2C7.042 2 8.5 3.458 8.5 5.25C8.5 7.042 7.042 8.5 5.25 8.5C3.458 8.5 2 7.042 2 5.25Z" fill="#A9A9A9"/>
</svg>
